<svg xmlns="http://www.w3.org/2000/svg" xmlns:xlink="http://www.w3.org/1999/xlink" width="920" zoomAndPan="magnify" viewBox="0 0 690 310.499991" height="414" preserveAspectRatio="xMidYMid meet" version="1.0"><defs><g/><clipPath id="42b3891110"><path d="M 0.675781 0.046875 L 272 0.046875 L 272 211.386719 L 0.675781 211.386719 Z M 0.675781 0.046875 " clip-rule="nonzero"/></clipPath><clipPath id="b219c0beb5"><rect x="0" width="272" y="0" height="212"/></clipPath><clipPath id="783033ba7a"><path d="M 252 11 L 586.53125 11 L 586.53125 202 L 252 202 Z M 252 11 " clip-rule="nonzero"/></clipPath><clipPath id="1d86e5587c"><rect x="0" width="335" y="0" height="191"/></clipPath><clipPath id="240881bb07"><rect x="0" width="587" y="0" height="212"/></clipPath></defs><g transform="matrix(1, 0, 0, 1, 49, 45)"><g clip-path="url(#240881bb07)"><g clip-path="url(#42b3891110)"><g><g clip-path="url(#b219c0beb5)"><g fill="#ffe222" fill-opacity="1"><g transform="translate(2.203407, 169.040272)"><g><path d="M 67.75 -105.25 C 59.632812 -105.25 52.703125 -103.390625 46.953125 -99.671875 C 41.210938 -95.953125 36.820312 -90.769531 33.78125 -84.125 C 30.738281 -77.476562 29.21875 -69.707031 29.21875 -60.8125 C 29.21875 -51.695312 30.851562 -43.957031 34.125 -37.59375 C 37.394531 -31.226562 41.957031 -26.410156 47.8125 -23.140625 C 53.664062 -19.878906 60.363281 -18.25 67.90625 -18.25 C 78.613281 -18.25 87.035156 -21.035156 93.171875 -26.609375 C 99.304688 -32.179688 102.375 -39.925781 102.375 -49.84375 L 102.375 -50.34375 L 65.046875 -50.34375 L 65.046875 -69.4375 L 122.484375 -69.4375 L 122.484375 0 L 104.234375 0 L 102.890625 -14.1875 C 99.503906 -9.457031 94.488281 -5.597656 87.84375 -2.609375 C 81.195312 0.367188 73.707031 1.859375 65.375 1.859375 C 53.882812 1.859375 43.71875 -0.757812 34.875 -6 C 26.039062 -11.238281 19.117188 -18.613281 14.109375 -28.125 C 9.097656 -37.644531 6.59375 -48.710938 6.59375 -61.328125 C 6.59375 -73.828125 9.15625 -84.890625 14.28125 -94.515625 C 19.40625 -104.148438 26.582031 -111.722656 35.8125 -117.234375 C 45.050781 -122.753906 55.863281 -125.515625 68.25 -125.515625 C 77.707031 -125.515625 86.238281 -123.796875 93.84375 -120.359375 C 101.445312 -116.929688 107.722656 -112.117188 112.671875 -105.921875 C 117.628906 -99.722656 120.671875 -92.40625 121.796875 -83.96875 L 99 -83.96875 C 97.082031 -91.28125 93.25 -96.65625 87.5 -100.09375 C 81.757812 -103.53125 75.175781 -105.25 67.75 -105.25 Z M 67.75 -105.25 "/></g></g></g><g fill="#ffe222" fill-opacity="1"><g transform="translate(125.86348, 169.040272)"><g><path d="M 5.75 -41.890625 C 5.75 -50.566406 7.660156 -58.195312 11.484375 -64.78125 C 15.316406 -71.375 20.609375 -76.523438 27.359375 -80.234375 C 34.117188 -83.953125 41.78125 -85.8125 50.34375 -85.8125 C 59.007812 -85.8125 66.691406 -83.953125 73.390625 -80.234375 C 80.097656 -76.523438 85.363281 -71.375 89.1875 -64.78125 C 93.019531 -58.195312 94.9375 -50.566406 94.9375 -41.890625 C 94.9375 -33.222656 93.019531 -25.59375 89.1875 -19 C 85.363281 -12.414062 80.097656 -7.265625 73.390625 -3.546875 C 66.691406 0.171875 59.007812 2.03125 50.34375 2.03125 C 41.78125 2.03125 34.117188 0.171875 27.359375 -3.546875 C 20.609375 -7.265625 15.316406 -12.414062 11.484375 -19 C 7.660156 -25.59375 5.75 -33.222656 5.75 -41.890625 Z M 26.359375 -41.890625 C 26.359375 -34.347656 28.582031 -28.210938 33.03125 -23.484375 C 37.476562 -18.753906 43.25 -16.390625 50.34375 -16.390625 C 57.4375 -16.390625 63.207031 -18.753906 67.65625 -23.484375 C 72.101562 -28.210938 74.328125 -34.347656 74.328125 -41.890625 C 74.328125 -49.554688 72.101562 -55.722656 67.65625 -60.390625 C 63.207031 -65.066406 57.4375 -67.40625 50.34375 -67.40625 C 43.25 -67.40625 37.476562 -65.066406 33.03125 -60.390625 C 28.582031 -55.722656 26.359375 -49.554688 26.359375 -41.890625 Z M 26.359375 -41.890625 "/></g></g></g><g fill="#ffe222" fill-opacity="1"><g transform="translate(218.101687, 169.040272)"><g><path d="M 35.140625 -37 L 18.578125 -37 C 17.898438 -41.5 17.28125 -46.875 16.71875 -53.125 C 16.15625 -59.375 15.703125 -66.101562 15.359375 -73.3125 C 15.023438 -80.519531 14.859375 -87.785156 14.859375 -95.109375 L 14.859375 -123.5 L 39.1875 -123.5 L 39.1875 -95.109375 C 39.1875 -87.566406 39.019531 -80.191406 38.6875 -72.984375 C 38.351562 -65.773438 37.875 -59.070312 37.25 -52.875 C 36.632812 -46.675781 35.929688 -41.382812 35.140625 -37 Z M 27.03125 2.203125 C 23.195312 2.203125 19.925781 0.878906 17.21875 -1.765625 C 14.519531 -4.421875 13.171875 -7.550781 13.171875 -11.15625 C 13.171875 -14.863281 14.519531 -18.039062 17.21875 -20.6875 C 19.925781 -23.34375 23.195312 -24.671875 27.03125 -24.671875 C 30.632812 -24.671875 33.785156 -23.34375 36.484375 -20.6875 C 39.191406 -18.039062 40.546875 -14.863281 40.546875 -11.15625 C 40.546875 -7.550781 39.191406 -4.421875 36.484375 -1.765625 C 33.785156 0.878906 30.632812 2.203125 27.03125 2.203125 Z M 27.03125 2.203125 "/></g></g></g></g></g></g><g clip-path="url(#783033ba7a)"><g transform="matrix(1, 0, 0, 1, 252, 11)"><g clip-path="url(#1d86e5587c)"><g fill="#ffe222" fill-opacity="1"><g transform="translate(8.017013, 151.95868)"><g><path d="M 52.140625 0 L 12.28125 0 L 12.28125 -110.796875 L 51.078125 -110.796875 C 61.984375 -110.796875 71.601562 -108.445312 79.9375 -103.75 C 88.28125 -99.050781 94.773438 -92.53125 99.421875 -84.1875 C 104.066406 -75.851562 106.390625 -66.179688 106.390625 -55.171875 C 106.390625 -44.359375 104.09375 -34.78125 99.5 -26.4375 C 94.90625 -18.101562 88.539062 -11.613281 80.40625 -6.96875 C 72.269531 -2.320312 62.847656 0 52.140625 0 Z M 49.25 -92.90625 L 31.671875 -92.90625 L 31.671875 -17.890625 L 50.3125 -17.890625 C 61.425781 -17.890625 70.140625 -21.222656 76.453125 -27.890625 C 82.773438 -34.554688 85.9375 -43.648438 85.9375 -55.171875 C 85.9375 -66.890625 82.675781 -76.109375 76.15625 -82.828125 C 69.644531 -89.546875 60.675781 -92.90625 49.25 -92.90625 Z M 49.25 -92.90625 "/></g></g></g><g fill="#ffe222" fill-opacity="1"><g transform="translate(112.592472, 151.95868)"><g><path d="M 31.828125 1.96875 C 23.847656 1.96875 17.582031 -0.148438 13.03125 -4.390625 C 8.488281 -8.640625 6.21875 -14.300781 6.21875 -21.375 C 6.21875 -28.238281 8.613281 -33.742188 13.40625 -37.890625 C 18.207031 -42.035156 25.054688 -44.460938 33.953125 -45.171875 L 56.375 -46.828125 L 56.375 -48.5 C 56.375 -53.550781 54.984375 -57.1875 52.203125 -59.40625 C 49.429688 -61.632812 45.671875 -62.75 40.921875 -62.75 C 35.460938 -62.75 31.269531 -61.660156 28.34375 -59.484375 C 25.414062 -57.316406 23.953125 -54.257812 23.953125 -50.3125 L 8.1875 -50.3125 C 8.1875 -58.394531 11.265625 -64.882812 17.421875 -69.78125 C 23.585938 -74.6875 31.722656 -77.140625 41.828125 -77.140625 C 51.929688 -77.140625 59.890625 -74.460938 65.703125 -69.109375 C 71.515625 -63.753906 74.421875 -55.875 74.421875 -45.46875 L 74.421875 0 L 58.203125 0 L 56.828125 -11.0625 C 55.210938 -7.21875 52.109375 -4.082031 47.515625 -1.65625 C 42.921875 0.757812 37.691406 1.96875 31.828125 1.96875 Z M 37.890625 -11.96875 C 43.546875 -11.96875 48.066406 -13.582031 51.453125 -16.8125 C 54.835938 -20.050781 56.53125 -24.550781 56.53125 -30.3125 L 56.53125 -34.25 L 40.921875 -33.046875 C 35.160156 -32.535156 31.066406 -31.34375 28.640625 -29.46875 C 26.210938 -27.601562 25 -25.15625 25 -22.125 C 25 -15.351562 29.296875 -11.96875 37.890625 -11.96875 Z M 37.890625 -11.96875 "/></g></g></g><g fill="#ffe222" fill-opacity="1"><g transform="translate(188.068675, 151.95868)"><g><path d="M 18.796875 -89.875 C 15.660156 -89.875 12.976562 -90.957031 10.75 -93.125 C 8.53125 -95.300781 7.421875 -97.957031 7.421875 -101.09375 C 7.421875 -104.226562 8.53125 -106.851562 10.75 -108.96875 C 12.976562 -111.09375 15.660156 -112.15625 18.796875 -112.15625 C 21.828125 -112.15625 24.425781 -111.09375 26.59375 -108.96875 C 28.769531 -106.851562 29.859375 -104.226562 29.859375 -101.09375 C 29.859375 -97.957031 28.769531 -95.300781 26.59375 -93.125 C 24.425781 -90.957031 21.828125 -89.875 18.796875 -89.875 Z M 9.546875 0 L 9.546875 -74.875 L 28.03125 -74.875 L 28.03125 0 Z M 9.546875 0 "/></g></g></g><g fill="#ffe222" fill-opacity="1"><g transform="translate(218.077247, 151.95868)"><g><path d="M 28.1875 0 L 9.84375 0 L 9.84375 -112.765625 L 28.1875 -112.765625 Z M 28.1875 0 "/></g></g></g><g fill="#ffe222" fill-opacity="1"><g transform="translate(248.540476, 151.95868)"><g><path d="M 3.03125 34.703125 L 3.03125 19.25 L 14.09375 19.25 C 17.726562 19.25 20.734375 18.59375 23.109375 17.28125 C 25.484375 15.96875 27.476562 13.140625 29.09375 8.796875 L 31.21875 3.1875 L 1.0625 -74.875 L 20.609375 -74.875 L 39.859375 -20.3125 L 60.171875 -74.875 L 79.265625 -74.875 L 42.59375 16.671875 C 39.757812 23.640625 36.296875 28.664062 32.203125 31.75 C 28.109375 34.832031 22.984375 36.375 16.828125 36.375 C 14.296875 36.375 11.867188 36.222656 9.546875 35.921875 C 7.222656 35.617188 5.050781 35.210938 3.03125 34.703125 Z M 3.03125 34.703125 "/></g></g></g></g></g></g></g></g></svg>